# xmcd CD database file
#
# Track frame offsets:
#	150
#	19944
#	35263
#	55568
#	75097
#	85583
#	104275
#	122722
#	139064
#	175120
#	192771
#
# Disc length: 2822 seconds
#
# Revision: 0
# Processed by: cddbd v1.5.2PL0 Copyright (c) Steve Scherf et al.
# Submitted via: CDex 1.51
#
DISCID=770b040b
DTITLE=MOTION TRIO - pictures from the street
DYEAR=1900
DGENRE=Jazz
TTITLE0=train to heaven
TTITLE1=cafe paris
TTITLE2=balkan dance
TTITLE3=little story
TTITLE4=tango
TTITLE5=its o k 
TTITLE6=scotsman
TTITLE7=pageant
TTITLE8=ajde jano
TTITLE9=libertyn
TTITLE10=you dance
EXTD=
EXTT0=
EXTT1=
EXTT2=
EXTT3=
EXTT4=
EXTT5=
EXTT6=
EXTT7=
EXTT8=
EXTT9=
EXTT10=
PLAYORDER=
